<?xml version="1.0" encoding="utf-8"?>
<!-- Generator: Adobe Illustrator 27.2.0, SVG Export Plug-In . SVG Version: 6.00 Build 0)  -->
<svg version="1.1" id="Layer_1" xmlns="http://www.w3.org/2000/svg" xmlns:xlink="http://www.w3.org/1999/xlink" x="0px" y="0px"
	 viewBox="0 0 80 80" enable-background="new 0 0 80 80" xml:space="preserve">
<g>
	<path fill="#DD882D" d="M77.6,79.8h-75c-0.8,0-1.5-0.7-1.5-1.5V35.3c0-0.5,0.3-1,0.7-1.3l37.4-23.7c0.5-0.3,1.1-0.3,1.6,0
		l37.6,23.7c0.4,0.3,0.7,0.8,0.7,1.3v42.9C79.1,79.1,78.5,79.8,77.6,79.8z M4.1,76.8h72V36.2L40,13.4L4.1,36.2V76.8z"/>
</g>
<g>
	
		<rect x="12.6" y="43.5" transform="matrix(0.5299 -0.848 0.848 0.5299 -41.8261 38.8547)" fill="#DD882D" width="3" height="27.2"/>
</g>
<g>
	<path fill="#DD882D" d="M76.9,79.5L40,58.2L3.3,79.1l-1.5-2.6l37.4-21.2c0.5-0.3,1-0.3,1.5,0L78.4,77L76.9,79.5z"/>
</g>
<g>
	
		<rect x="52" y="55.9" transform="matrix(0.8556 -0.5177 0.5177 0.8556 -20.2167 42.3452)" fill="#DD882D" width="27.7" height="3"/>
</g>
<g>
	<path fill="#DD882D" d="M62.2,60.8h-3V22.9H20.8v36.8h-3V21.4c0-0.8,0.7-1.5,1.5-1.5h41.5c0.8,0,1.5,0.7,1.5,1.5V60.8z"/>
</g>
<g>
	<path fill="#DD882D" d="M47.3,38.6h-20c-0.8,0-1.5-0.7-1.5-1.5V26.6c0-0.8,0.7-1.5,1.5-1.5h20c0.8,0,1.5,0.7,1.5,1.5v10.5
		C48.8,37.9,48.2,38.6,47.3,38.6z M28.8,35.6h17v-7.5h-17V35.6z"/>
</g>
<g>
	<rect x="25.7" y="41.9" fill="#DD882D" width="26.5" height="3"/>
</g>
<g>
	<rect x="25.7" y="48.4" fill="#DD882D" width="26.5" height="3"/>
</g>
<g>
	<path fill="#DD882D" d="M10.1,23c-0.4,0-0.8-0.1-1.1-0.4l-7.7-7.8c-0.6-0.6-0.6-1.5,0-2.1c0.6-0.6,1.5-0.6,2.1,0l7.7,7.8
		c0.6,0.6,0.6,1.5,0,2.1C10.8,22.9,10.5,23,10.1,23z"/>
</g>
<g>
	<path fill="#DD882D" d="M24.8,15.2c-0.6,0-1.1-0.3-1.4-0.9L18.6,3c-0.3-0.8,0-1.6,0.8-2c0.8-0.3,1.6,0,2,0.8l4.8,11.2
		c0.3,0.8,0,1.6-0.8,2C25.1,15.1,24.9,15.2,24.8,15.2z"/>
</g>
<g>
	<path fill="#DD882D" d="M56.7,15.2c-0.2,0-0.4,0-0.6-0.1c-0.8-0.3-1.1-1.2-0.8-2l4.9-11.2c0.3-0.8,1.2-1.1,2-0.8
		c0.8,0.3,1.1,1.2,0.8,2l-4.9,11.2C57.8,14.8,57.3,15.2,56.7,15.2z"/>
</g>
<g>
	<path fill="#DD882D" d="M69.6,23.2c-0.4,0-0.8-0.2-1.1-0.5c-0.6-0.6-0.6-1.5,0-2.1l8.2-8c0.6-0.6,1.5-0.6,2.1,0
		c0.6,0.6,0.6,1.5,0,2.1l-8.2,8C70.4,23,70,23.2,69.6,23.2z"/>
</g>
</svg>
